<svg width="180" height="180" viewBox="0 0 180 180" fill="none"
    xmlns="http://www.w3.org/2000/svg">
    <path fill-rule="evenodd" clip-rule="evenodd" d="M90 180C139.706 180 180 139.706 180 90C180 40.2944 139.706 0 90 0C40.2944 0 0 40.2944 0 90C0 139.706 40.2944 180 90 180ZM79.6053 94.259V115H71.8675V94.188L62 64H70.0928L75.6299 84.3858H75.7719L81.593 64H89.6858L79.6053 94.259ZM109.404 71.1741V115H101.595V71.1741H93.9285V64H117V71.1741H109.404ZM152.244 117.122L155.033 128.277L155.882 131.673L162.673 129.975L161.824 126.58L156.551 105.489C156.528 105.389 156.5 105.289 156.468 105.192C156.309 104.709 156.054 104.282 155.729 103.926C155.143 103.285 154.33 102.877 153.454 102.799C153.36 102.79 153.265 102.786 153.169 102.785C152.855 102.783 152.545 102.823 152.246 102.902L131.151 108.176L127.756 109.025L129.453 115.816L132.849 114.967L147.287 111.357C142.577 121.403 135.462 130.176 126.531 136.874C115.822 144.906 102.98 149.596 89.617 150.357C77.3466 150.34 65.3764 146.556 55.3244 139.516C45.2461 132.457 37.5847 122.468 33.3808 110.904C32.7203 109.088 30.7122 108.15 28.8955 108.811C27.0789 109.471 26.1416 111.479 26.802 113.296C31.497 126.21 40.0533 137.367 51.3088 145.249C62.5643 153.132 75.9735 157.36 89.7149 157.357C89.7794 157.357 89.8438 157.355 89.9082 157.352C104.686 156.531 118.89 151.355 130.731 142.474C139.745 135.714 147.082 127.037 152.244 117.122ZM16.7556 50.882L23.5466 49.1842L24.3954 52.5797L27.2651 64.0582C32.4655 54.639 40.0481 45.859 48.948 38.9093C60.7273 29.711 75.1014 23.5 89.7142 23.5H89.7241C103.532 23.5388 116.991 27.8477 128.254 35.8358C139.517 43.824 148.034 55.1004 152.637 68.1191C153.281 69.9415 152.326 71.9412 150.504 72.5856C148.681 73.2299 146.682 72.2748 146.037 70.4524C141.916 58.7953 134.29 48.6983 124.205 41.5456C114.121 34.3939 102.072 30.5358 89.7093 30.5C77.0495 30.5014 64.1512 35.9187 53.2562 44.4264C44.373 51.3633 37.0125 60.2091 32.3286 69.453L46.5796 65.8902L49.9751 65.0414L51.6729 71.8324L48.2774 72.6812L27.1799 77.9556C26.8288 78.0487 26.4614 78.0878 26.0904 78.0669C25.1608 78.0153 24.2948 77.5922 23.6819 76.9114C23.3642 76.5585 23.1146 76.1364 22.9594 75.6608C22.9279 75.565 22.9005 75.4676 22.8774 75.3691L17.6044 54.2775L16.7556 50.882Z" fill="black"/>
</svg>
