<svg width="180" height="180" viewBox="0 0 180 180" fill="none"
    xmlns="http://www.w3.org/2000/svg">
    <path d="M180 90C180 139.706 139.706 180 90 180C40.2944 180 0 139.706 0 90C0 40.2944 40.2944 0 90 0C139.706 0 180 40.2944 180 90Z" fill="#FF0000"/>
    <path d="M79.6053 115V94.259L89.6858 64H81.593L75.7719 84.3858H75.6299L70.0928 64H62L71.8675 94.188V115H79.6053Z" fill="white"/>
    <path d="M109.404 115V71.1741H117V64H93.9285V71.1741H101.595V115H109.404Z" fill="white"/>
    <path fill-rule="evenodd" clip-rule="evenodd" d="M53.2562 44.4264C44.3729 51.3633 37.0125 60.2091 32.3286 69.453L49.9751 65.0414L51.6729 71.8324L27.1345 77.9669C25.2592 78.4358 23.359 77.2956 22.8902 75.4203L16.7556 50.882L23.5466 49.1842L27.2651 64.0582C32.4655 54.639 40.0481 45.859 48.948 38.9093C60.7273 29.711 75.1014 23.5 89.7142 23.5H89.7241C103.532 23.5388 116.991 27.8477 128.254 35.8358C139.517 43.824 148.034 55.1004 152.637 68.1191C153.281 69.9415 152.326 71.9412 150.504 72.5856C148.681 73.2299 146.682 72.2748 146.037 70.4524C141.916 58.7953 134.29 48.6983 124.205 41.5456C114.121 34.3939 102.072 30.5358 89.7093 30.5C77.0494 30.5014 64.1512 35.9187 53.2562 44.4264ZM154.944 103.285C155.74 103.762 156.313 104.536 156.538 105.437L162.673 129.975L155.882 131.673L152.244 117.122C147.082 127.037 139.745 135.714 130.731 142.474C118.89 151.355 104.686 156.531 89.9082 157.352C89.8438 157.355 89.7793 157.357 89.7148 157.357C75.9734 157.36 62.5643 153.132 51.3088 145.249C40.0533 137.367 31.497 126.21 26.802 113.296C26.1416 111.479 27.0789 109.471 28.8955 108.811C30.7122 108.15 32.7203 109.088 33.3807 110.904C37.5847 122.468 45.2461 132.457 55.3244 139.516C65.3763 146.556 77.3465 150.34 89.617 150.357C102.98 149.596 115.822 144.906 126.531 136.874C135.462 130.176 142.577 121.403 147.287 111.357L129.453 115.816L127.756 109.025L152.294 102.89C153.194 102.665 154.148 102.807 154.944 103.285Z" fill="white"/>
</svg>
